<?xml version="1.0" encoding="utf-8" standalone="yes"?>
<!DOCTYPE svg PUBLIC "-//W3C//DTD SVG 1.1//EN" "http://www.w3.org/Graphics/SVG/1.1/DTD/svg11.dtd">
<svg style="fill:none;stroke:none;fill-rule:evenodd;clip-rule:evenodd;stroke-linecap:round;stroke-linejoin:round;stroke-miterlimit:1.5;" version="1.1" xmlns="http://www.w3.org/2000/svg" xmlns:xlink="http://www.w3.org/1999/xlink" width="816" height="600" viewBox="0 0 816 600"><style class="text-font-style fontImports" data-font-family="Shantell Sans">@import url(https://fonts.googleapis.com/css2?family=Shantell+Sans:wght@300..800&amp;amp;display=block);</style><rect id="" x="0" y="0" width="816" height="600" style="fill: #2c2c2c;"></rect><g id="items" style="isolation: isolate"><g id="blend" style="mix-blend-mode: normal"><g id="g-root-tf_zn6852ulhnv2-fill" data-item-order="-734400"><g id="tf_zn6852ulhnv2-fill-merged" stroke="none" fill="#2c2c2c" fill-opacity="1"><g><path d="M0 0 H816 V600 H0 V0"></path></g></g></g><g id="g-root-cp_4_g-4_143m7cmulkjye-fill" data-item-order="-387040" transform="translate(229.74197387695312, 143)"><g id="cp_4_g-4_143m7cmulkjye-fill-merged" stroke="none" fill="#776f30" fill-opacity="1"><g><path d="M9.2 223.6L9.5 224.4L29.1 219.5L28 216.6L9.2 223.6 M29.1 219.5L24.3 183.3L5.6 194.7L9.5 224.4L29.1 219.5 M5.6 194.7L28.2 210.3L44.1 197L24.3 183.3L5.6 194.7 M44.1 197L22.4 149.5L6.2 162.2L28.2 210.3L44.1 197 M6.2 162.2L41.1 190.1L56.6 176.9L22.4 149.5L6.2 162.2 M56.6 176.9L28.2 125.8L12 137.7L41.1 190.1L56.6 176.9 M12 137.7L53.4 181.1L69.9 169.4L28.2 125.8L12 137.7 M69.9 169.4L36.7 103.6L20.2 115.4L53.4 181.1L69.9 169.4 M20.2 115.4L98 194.1L113.8 181.7L36.7 103.6L20.2 115.4 M113.8 181.7L52.5 81.5L36.4 93.6L98 194.1L113.8 181.7 M36.4 93.6L103.9 167.1L119.9 154.9L52.5 81.5L36.4 93.6 M119.9 154.9L62.8 64.4L46.7 76.4L103.9 167.1L119.9 154.9 M46.7 76.4L111.1 150.4L128 139.2L62.8 64.4L46.7 76.4 M128 139.2L85.3 52.2L68.6 63.6L111.1 150.4L128 139.2 M68.6 63.6L131.7 132.4L148.1 120.7L85.3 52.2L68.6 63.6 M148.1 120.7L102.3 37.2L85.9 48.9L131.7 132.4L148.1 120.7 M85.9 48.9L160.2 131L176.2 118.9L102.3 37.2L85.9 48.9 M176.2 118.9L121.1 29.8L104.9 41.7L160.2 131L176.2 118.9 M104.9 41.7L162.4 108.7L180.3 98.8L121.1 29.8L104.9 41.7 M180.3 98.8L159.4 32.2L141.4 41.9L162.4 108.7L180.3 98.8 M141.4 41.9L175.1 83L190.6 70.3L159.4 32.2L141.4 41.9" fill-rule="nonzero"></path></g></g></g><g id="g-root-cp_3_g-3_qss62eulkidj-fill" data-item-order="-387036" transform="translate(221, 306.67578125)"><g id="cp_3_g-3_qss62eulkidj-fill-merged" stroke="none" fill="#60703f" fill-opacity="1"><g><path d="M227.6 190.3L230.6 185.2L218 167.3L210.4 180.1L227.6 190.3 M218 167.3L182.3 174.5L191 193.1L230.6 185.2L218 167.3 M191 193.1L214.7 173.9L204.2 156.7L182.3 174.5L191 193.1 M204.2 156.7L149 180.6L160.7 197.3L214.7 173.9L204.2 156.7 M160.7 197.3L191.7 164.6L179.5 148.3L149 180.6L160.7 197.3 M179.5 148.3L125.5 175.8L137.1 192.4L191.7 164.6L179.5 148.3 M137.1 192.4L179.4 152.9L168.4 135.9L125.5 175.8L137.1 192.4 M168.4 135.9L101.3 164.3L112.9 181.1L179.4 152.9L168.4 135.9 M112.9 181.1L189.3 102.1L176.6 86.5L101.3 164.3L112.9 181.1 M176.6 86.5L81.8 146.1L93.4 162.5L189.3 102.1L176.6 86.5 M93.4 162.5L167.8 104.3L157.3 87.1L81.8 146.1L93.4 162.5 M157.3 87.1L62 130.8L73.2 147.6L167.8 104.3L157.3 87.1 M73.2 147.6L141.3 85.2L129 69.3L62 130.8L73.2 147.6 M129 69.3L49.3 120.4L61.4 136.5L141.3 85.2L129 69.3 M61.4 136.5L133.1 74L121.8 57.2L49.3 120.4L61.4 136.5 M121.8 57.2L36 100.4L47.3 117.1L133.1 74L121.8 57.2 M47.3 117.1L130.1 44.6L118.3 28.3L36 100.4L47.3 117.1 M118.3 28.3L24.2 84L36.4 100L130.1 44.6L118.3 28.3 M36.4 100L101.5 36.7L90.1 19.9L24.2 84L36.4 100 M90.1 19.9L42 41.9L53.7 58.5L101.5 36.7L90.1 19.9 M53.7 58.5L82.7 28.7L68.4 14.7L42 41.9L53.7 58.5" fill-rule="nonzero"></path></g></g></g><g id="g-root-cp_2_g-2_924mnqulkhkw-fill" data-item-order="-387032" transform="translate(384.676025390625, 271.01611328125)"><g id="cp_2_g-2_924mnqulkhkw-fill-merged" stroke="none" fill="#41735b" fill-opacity="1"><g><path d="M17.2 188.9 H16.2L34.2 169L17.4 168.9L17.2 188.9 M34.2 169L32.3 151.3L13.1 159.9L16.2 188.9L34.2 169 M13.1 159.9L74.7 228.1L90.7 216L32.3 151.3L13.1 159.9 M90.7 216L35.9 129.2L20.2 141.7L74.7 228.1L90.7 216 M20.2 141.7L90.2 212.3L106.5 200.3L35.9 129.2L20.2 141.7 M106.5 200.3L62.6 118.4L46.3 130.4L90.2 212.3L106.5 200.3 M46.3 130.4L113.2 197.7L129.5 185.7L62.6 118.4L46.3 130.4 M129.5 185.7L84.4 101.5L67.7 112.7L113.2 197.7L129.5 185.7 M67.7 112.7L128.8 187.6L145.4 176.4L84.4 101.5L67.7 112.7 M145.4 176.4L97 88.7L80.8 100.6L128.8 187.6L145.4 176.4 M80.8 100.6L147.1 170.4L163.1 158.1L97 88.7L80.8 100.6 M163.1 158.1L107.8 68.3L92 80.8L147.1 170.4L163.1 158.1 M92 80.8L160.8 149.7L176.5 137.1L107.8 68.3L92 80.8 M176.5 137.1L127.8 60.5L112.4 73.6L160.8 149.7L176.5 137.1 M112.4 73.6L170.9 125.9L186.8 113.3L127.8 60.5L112.4 73.6 M186.8 113.3L156.9 58.3L140.4 69.8L170.9 125.9L186.8 113.3 M140.4 69.8L170.9 104.3L188.7 94.2L156.9 58.3L140.4 69.8 M188.7 94.2L171.9 40.5L154.3 51.1L170.9 104.3L188.7 94.2 M154.3 51.1L178.7 76L197.1 66.2L171.9 40.5L154.3 51.1 M197.1 66.2L188.3 24.5L169.2 31.2L178.7 76L197.1 66.2 M169.2 31.2L176.3 45L194.1 36L188.3 24.5L169.2 31.2" fill-rule="nonzero"></path></g></g></g><g id="g-root-cp_1_g-1_1urs69iulkiyp-fill" data-item-order="-387028" transform="translate(349.0159912109375, 151.7421875)"><g id="cp_1_g-1_1urs69iulkiyp-fill-merged" stroke="none" fill="#344e57" fill-opacity="1"><g><path d="M22.3 8.2L13 15.4L21.5 34L34.5 24L22.3 8.2 M21.5 34L58.3 26.6L48.7 8.1L13 15.4L21.5 34 M48.7 8.1L31.7 24.2L42.1 41.8L58.3 26.6L48.7 8.1 M42.1 41.8L96.5 24.1L86.3 6.4L31.7 24.2L42.1 41.8 M86.3 6.4L55.2 34.2L66 51.3L96.5 24.1L86.3 6.4 M66 51.3L118.3 29.8L106 13.2L55.2 34.2L66 51.3 M106 13.2L69 58.9L82.1 74.5L118.3 29.8L106 13.2 M82.1 74.5L143.1 40.4L131 24.2L69 58.9L82.1 74.5 M131 24.2L56.2 97.8L68.6 113.6L143.1 40.4L131 24.2 M68.6 113.6L167 53.6L155.2 37.4L56.2 97.8L68.6 113.6 M155.2 37.4L83.9 99.3L95.6 115.6L167 53.6L155.2 37.4 M95.6 115.6L181.6 65.3L169.6 49.1L83.9 99.3L95.6 115.6 M169.6 49.1L96.8 116.4L109 132.3L181.6 65.3L169.6 49.1 M109 132.3L194.2 79.3L182 63.3L96.8 116.4L109 132.3 M182 63.3L112.3 127.3L123.7 143.9L194.2 79.3L182 63.3 M123.7 143.9L210.3 101L198.5 84.6L112.3 127.3L123.7 143.9 M198.5 84.6L121 162.7L134 178L210.3 101L198.5 84.6 M134 178L218.3 117.2L205.6 101.7L121 162.7L134 178 M205.6 101.7L141.2 162L151.7 179.6L218.3 117.2L205.6 101.7 M151.7 179.6L208.6 160.7L198.4 143L141.2 162L151.7 179.6 M198.4 143L158.2 178.6L171.5 193.6L208.6 160.7L198.4 143" fill-rule="nonzero"></path></g></g></g><g id="g-root-tx_ccsanddr_1hgy4zaulkhdu-fill" data-item-order="0" transform="translate(182, 38)"><g id="tx_ccsanddr_1hgy4zaulkhdu-fill-merged" stroke="none" fill="#f4f4f4" fill-opacity="1"><g><text style="font: bold 25px &quot;Shantell Sans&quot;, cursive; white-space: pre;" transform="translate(226, 28)" font-weight="bold" font-size="25px" font-family="'Shantell Sans', cursive"><tspan x="-212.13" y="17" dominant-baseline="ideographic">CCS and DRCC Compression Cycle</tspan></text></g></g></g><g id="g-root-ic_reco_zrjjquulkhzh-fill" data-item-order="0" transform="translate(86, 134)"></g><g id="g-root-ic_view_de7dfauldi4s-fill" data-item-order="0" transform="translate(662, 122)"></g><g id="g-root-tx_decoding_dj72yeulkiyr-fill" data-item-order="0" transform="translate(56, 194)"><g id="tx_decoding_dj72yeulkiyr-fill-merged" stroke="none" fill="#f4f4f4" fill-opacity="1"><g><text style="font: bold 20px &quot;Shantell Sans&quot;, cursive; white-space: pre;" transform="translate(64, 22)" font-weight="bold" font-size="20px" font-family="'Shantell Sans', cursive"><tspan x="-47.55" y="13" dominant-baseline="ideographic">Decoding</tspan></text></g></g></g><g id="g-root-tx_contexta_4hbf06uldhj6-fill" data-item-order="0" transform="translate(638, 182)"><g id="tx_contexta_4hbf06uldhj6-fill-merged" stroke="none" fill="#f4f4f4" fill-opacity="1"><g><text style="font: bold 20px &quot;Shantell Sans&quot;, cursive; white-space: pre;" transform="translate(58, 34)" font-weight="bold" font-size="20px" font-family="'Shantell Sans', cursive"><tspan x="-41.94" y="1" dominant-baseline="ideographic">Context </tspan><tspan x="-45.48" y="25" dominant-baseline="ideographic">Analysis</tspan></text></g></g></g><g id="g-root-tx_reconstr_1qdu3eeulkhzg-fill" data-item-order="0" transform="translate(38, 230)"><g id="tx_reconstr_1qdu3eeulkhzg-fill-merged" stroke="none" fill="#f4f4f4" fill-opacity="1"><g><text style="font: 15px &quot;Shantell Sans&quot;, cursive; white-space: pre;" transform="translate(82, 40)" font-size="15px" font-family="'Shantell Sans', cursive"><tspan x="-44.72" y="-8" dominant-baseline="ideographic">Reconstruct </tspan><tspan x="-68.38" y="10" dominant-baseline="ideographic">original data from </tspan><tspan x="-51.78" y="28" dominant-baseline="ideographic">encoded data</tspan></text></g></g></g><g id="g-root-tx_identify_1cw4xbquldhc3-fill" data-item-order="0" transform="translate(614, 242)"><g id="tx_identify_1cw4xbquldhc3-fill-merged" stroke="none" fill="#f4f4f4" fill-opacity="1"><g><text style="font: 15px &quot;Shantell Sans&quot;, cursive; white-space: pre;" transform="translate(82, 40)" font-size="15px" font-family="'Shantell Sans', cursive"><tspan x="-65.07" y="-8" dominant-baseline="ideographic">Identify patterns </tspan><tspan x="-65.59" y="10" dominant-baseline="ideographic">and relationships </tspan><tspan x="-28.8" y="28" dominant-baseline="ideographic">in data</tspan></text></g></g></g><g id="g-root-ic_code_1haph9yulanlw-fill" data-item-order="0" transform="translate(86, 326)"></g><g id="g-root-ic_data_vccp12ul9b7q-fill" data-item-order="0" transform="translate(662, 338)"></g><g id="g-root-tx_contextb_1d3059yul9ate-fill" data-item-order="0" transform="translate(56, 386)"><g id="tx_contextb_1d3059yul9ate-fill-merged" stroke="none" fill="#f4f4f4" fill-opacity="1"><g><text style="font: bold 20px &quot;Shantell Sans&quot;, cursive; white-space: pre;" transform="translate(64, 46)" font-weight="bold" font-size="20px" font-family="'Shantell Sans', cursive"><tspan x="-44.63" y="-11" dominant-baseline="ideographic">Context-</tspan><tspan x="-31.06" y="13" dominant-baseline="ideographic">Based </tspan><tspan x="-47.77" y="37" dominant-baseline="ideographic">Encoding</tspan></text></g></g></g><g id="g-root-tx_contextm_1hgbr1yulubd0-fill" data-item-order="0" transform="translate(632, 398)"><g id="tx_contextm_1hgbr1yulubd0-fill-merged" stroke="none" fill="#f4f4f4" fill-opacity="1"><g><text style="font: bold 20px &quot;Shantell Sans&quot;, cursive; white-space: pre;" transform="translate(64, 34)" font-weight="bold" font-size="20px" font-family="'Shantell Sans', cursive"><tspan x="-40.27" y="1" dominant-baseline="ideographic">Context </tspan><tspan x="-49" y="25" dominant-baseline="ideographic">Modeling</tspan></text></g></g></g><g id="g-root-tx_encodeda_8vvyyeulansz-fill" data-item-order="0" transform="translate(38, 470)"><g id="tx_encodeda_8vvyyeulansz-fill-merged" stroke="none" fill="#f4f4f4" fill-opacity="1"><g><text style="font: 15px &quot;Shantell Sans&quot;, cursive; white-space: pre;" transform="translate(82, 28)" font-size="15px" font-family="'Shantell Sans', cursive"><tspan x="-68.65" y="1" dominant-baseline="ideographic">Encode data using </tspan><tspan x="-67.79" y="19" dominant-baseline="ideographic">the context model</tspan></text></g></g></g><g id="g-root-tx_buildamo_18nt48muludc1-fill" data-item-order="0" transform="translate(614, 458)"><g id="tx_buildamo_18nt48muludc1-fill-merged" stroke="none" fill="#f4f4f4" fill-opacity="1"><g><text style="font: 15px &quot;Shantell Sans&quot;, cursive; white-space: pre;" transform="translate(82, 40)" font-size="15px" font-family="'Shantell Sans', cursive"><tspan x="-52.07" y="-8" dominant-baseline="ideographic">Build a model </tspan><tspan x="-67.46" y="10" dominant-baseline="ideographic">representing data </tspan><tspan x="-33.16" y="28" dominant-baseline="ideographic">patterns</tspan></text></g></g></g><g id="g-root-tf_zn6852ulhnv2-stroke" data-item-order="-734400"></g><g id="g-root-cp_4_g-4_143m7cmulkjye-stroke" data-item-order="-387040" transform="translate(229.74197387695312, 143)"><g id="cp_4_g-4_143m7cmulkjye-stroke" fill="none" stroke-linecap="round" stroke-linejoin="round" stroke-miterlimit="4" stroke="#f4f4f4" stroke-width="4" stroke-opacity="1"><g><path d="M 106.435431 194.4158C 105.210231 183.0106 106.699731 171.1469 111.304731 159.7706C 118.764931 141.341 132.988831 127.68 149.955131 120.4913L 159.318131 142.5897L 191.156331 63.9364L 103.140131 10L 112.503131 32.0982C 72.915131 48.8717 39.726031 80.7474 22.319031 123.7497C 7.319931 160.8036 6.485831 200.0733 17.273131 235.5559L 55.194531 173.6739L 106.435431 194.4158ZM 106.400031 194.4C 105.000031 183 106.900031 171.2 111.300031 159.8C 118.500031 141.2 133.700031 129.2 150.000031 120.5C 152.400031 128.1 156.600031 135.1 159.300031 142.6C 168.600031 115.9 179.500031 89.7 191.200031 63.9C 178.400031 54.8 164.300031 47.5 151.000031 39.3C 135.000031 29.5 119.300031 19.4 103.100031 10C 106.300031 17.4 110.600031 24.3 112.500031 32.1C 91.500031 42.4 72.000031 55.4 55.100031 72.2C 41.000031 86.3 31.200031 104.5 22.300031 123.7C 14.600031 140.6 12.600031 158.7 10.300031 176.1C 7.800031 196.3 12.200031 216.3 17.300031 235.6C 29.500031 214.7 43.100031 194.6 55.200031 173.7C 72.200031 180.8 89.700031 186.6 106.400031 194.4"></path></g></g></g><g id="g-root-cp_3_g-3_qss62eulkidj-stroke" data-item-order="-387036" transform="translate(221, 306.67578125)"><g id="cp_3_g-3_qss62eulkidj-stroke" fill="none" stroke-linecap="round" stroke-linejoin="round" stroke-miterlimit="4" stroke="#f4f4f4" stroke-width="4" stroke-opacity="1"><g><path d="M 120.4913 51.2012L 142.5896 41.8382L 63.9364 10L 10 98.0162L 32.0984 88.6532C 48.8719 128.2413 80.7477 161.4306 123.7501 178.8376C 160.8038 193.8366 200.0736 194.6708 235.5561 183.8835L 173.674 145.9621L 194.416 94.721C 183.0107 95.9463 171.147 94.4568 159.7706 89.8517C 141.341 82.3916 127.6799 68.1676 120.4913 51.2012ZM 120.5 51.2C 127.3 47 135.8 46 142.6 41.8C 130.3 35.5 117.2 30.7 104.1 26.3C 90.4 21.6 76.8 16.5 63.9 10C 55.9 25.3 45.3 39.1 36.9 54.2C 28.5 69.1 18.2 83 10 98C 17.2 94.4 24.6 91.5 32.1 88.7C 41.7 109.4 53.6 129.8 71.2 145.1C 86.6 158.5 104.4 169 123.8 178.8C 159.4 197 200.3 195.5 235.6 183.9C 214.3 172.3 194.7 157.9 173.7 146C 178.7 128.2 187.4 111.8 194.4 94.7C 183.1 96.7 171.3 94.1 159.8 89.9C 141.1 83 126.5 68.6 120.5 51.2"></path></g></g></g><g id="g-root-cp_2_g-2_924mnqulkhkw-stroke" data-item-order="-387032" transform="translate(384.676025390625, 271.01611328125)"><g id="cp_2_g-2_924mnqulkhkw-stroke" fill="none" stroke-linecap="round" stroke-linejoin="round" stroke-miterlimit="4" stroke="#f4f4f4" stroke-width="4" stroke-opacity="1"><g><path d="M 10 181.6202L 98.0162 235.5567L 88.6532 213.4583C 128.2414 196.6849 161.4308 164.8091 178.8378 121.8066C 193.837 84.7526 194.671 45.4827 183.8836 10L 145.962 71.8823L 94.7209 51.1404C 95.9462 62.5457 94.4567 74.4095 89.8516 85.7859C 82.3915 104.2155 68.1675 117.8766 51.2011 125.0652L 41.8382 102.967L 10 181.6202ZM 10 181.6C 25.4 190.9 41.2 199.7 56.1 209.9C 69.6 219.1 85 225.6 98 235.6C 94.6 228.3 91.8 220.8 88.7 213.5C 102.1 209.9 112.9 199.9 124.8 192.5C 138.2 184.2 149.1 171.8 158.4 158.5C 166.3 147.2 175 135.7 178.8 121.8C 184.1 102.5 191.6 84.2 191 65.3C 190.5 46.4 190.3 27.4 183.9 10C 171.1 30.5 158.2 51 146 71.9C 128.9 65 111.4 59 94.7 51.1C 95.6 62.6 94.6 74.5 89.9 85.8C 82.2 104.1 68.8 119.4 51.2 125.1C 46.8 118.4 43.8 110.7 41.8 103C 32.5 129.7 21.6 155.9 10 181.6"></path></g></g></g><g id="g-root-cp_1_g-1_1urs69iulkiyp-stroke" data-item-order="-387028" transform="translate(349.0159912109375, 151.7421875)"><g id="cp_1_g-1_1urs69iulkiyp-stroke" fill="none" stroke-linecap="round" stroke-linejoin="round" stroke-miterlimit="4" stroke="#f4f4f4" stroke-width="4" stroke-opacity="1"><g><path d="M 51.1404 106.4357C 62.5456 105.2105 74.4094 106.7 85.7857 111.3051C 104.2153 118.7652 117.8764 132.9892 125.065 149.9555L 102.9668 159.3184L 181.62 191.1566L 235.5565 103.1403L 213.4583 112.5033C 196.6849 72.9152 164.8091 39.726 121.8068 22.319C 84.7527 7.3198 45.4827 6.4858 10 17.2733L 71.8823 55.1948L 51.1404 106.4357ZM 51.1 106.4C 62.6 107 73.9 108.1 85.8 111.3C 105 116.5 118.9 132.6 125.1 150C 118.7 154.8 110.2 155.9 103 159.3C 129.4 169.3 156 179.2 181.6 191.2C 191.1 175.7 201.9 161 210.1 144.8C 217.4 130.2 226.6 116.7 235.6 103.1C 228.4 106.7 221.1 110.1 213.5 112.5C 204.8 91.3 190.3 73.1 174.4 56.1C 160.4 41.2 141.6 31.2 121.8 22.3C 109.9 17 97 15.9 85 12.1C 71.8 7.9 57.7 10.5 44.2 10.6C 32.5 10.8 21.3 14.7 10 17.3C 30.4 30.2 50.9 43.2 71.9 55.2C 63.7 71.7 57.2 89 51.1 106.4"></path></g></g></g><g id="g-root-tx_ccsanddr_1hgy4zaulkhdu-stroke" data-item-order="0" transform="translate(182, 38)"></g><g id="g-root-ic_reco_zrjjquulkhzh-stroke" data-item-order="0" transform="translate(86, 134)"><g id="ic_reco_zrjjquulkhzh-stroke" fill="none" stroke-linecap="round" stroke-linejoin="round" stroke-miterlimit="4" stroke="#f4f4f4" stroke-width="2" stroke-opacity="1"><g><path d="M 34.571999 54.858002C 34.570896 56.041317 33.61132 57 32.428001 57L 13.142 57C 11.959463 56.998898 11.001102 56.040539 11 54.858002L 11 49.5C 11 42.990772 16.276772 37.714001 22.785999 37.714001C 29.295229 37.714001 34.571999 42.990772 34.571999 49.5ZM 18.285999 45C 18.285999 45.276142 18.509857 45.5 18.785999 45.5C 19.062141 45.5 19.285999 45.276142 19.285999 45C 19.285999 44.723858 19.062141 44.5 18.785999 44.5C 18.509857 44.5 18.285999 44.723858 18.285999 45M 26.285999 44.987999C 26.285999 45.264141 26.509857 45.487999 26.785999 45.487999C 27.062143 45.487999 27.285999 45.264141 27.285999 44.987999C 27.285999 44.711857 27.062143 44.487999 26.785999 44.487999C 26.509857 44.487999 26.285999 44.711857 26.285999 44.987999M 22.785999 37.714001L 22.785999 33.428001M 19.571999 30.214001C 19.572001 31.989044 21.010956 33.428001 22.785999 33.428001C 24.561043 33.428001 26 31.989044 26 30.214001C 26 28.438957 24.561043 27 22.785999 27C 21.010956 27 19.572001 28.438957 19.572001 30.214001M 11 51.630001L 34.571999 51.630001M 27 21L 27 23.5M 32 19L 32 31M 37 17L 37 33M 57 21L 57 29M 52 19L 52 31M 47 17L 47 33M 42 11L 42 39M 34.599998 54.799999C 34.400002 56 33.599998 57.200001 32.400002 57C 26 56 19.4 55.599998 13.2 57C 12 57.200001 10.6 56 11 54.799999C 11.6 53.200001 11.6 51.200001 11 49.599998C 9 43.400002 16.6 39.400002 22.799999 37.799999C 29 36 32.799999 43.200001 34.599998 49.599998C 35 51.200001 35 53.200001 34.599998 54.799999M 18.200001 45C 18.4 45.200001 18.6 45.400002 18.799999 45.599998C 19 45.599998 19.4 45.200001 19.200001 45C 19.200001 44.799999 19 44.400002 18.799999 44.599998C 18.6 44.599998 18.200001 44.799999 18.200001 45M 26.200001 45C 26.4 45.200001 26.6 45.599998 26.799999 45.400002C 27 45.400002 27.4 45.200001 27.200001 45C 27.200001 44.799999 27 44.599998 26.799999 44.400002C 26.6 44.400002 26.200001 44.799999 26.200001 45M 22.799999 37.799999C 23.4 36.400002 22.4 34.799999 22.799999 33.400002M 19.6 30.200001C 19.4 32 21 33.200001 22.799999 33.400002C 24.6 33.599998 25.4 31.799999 26 30.200001C 26.6 28.6 24.4 27.6 22.799999 27C 21.200001 26.4 19.799999 28.4 19.6 30.200001M 11 51.599998C 18.799999 51.400002 26.799999 50.799999 34.599998 51.599998M 27 21C 27.200001 21.799999 27.200001 22.6 27 23.6M 32 19C 30.799999 22.799999 33.200001 27.200001 32 31M 37 17C 39 22 37.400002 27.6 37 33M 57 21C 57 23.6 57 26.4 57 29M 52 19C 52.799999 22.799999 50.799999 27.200001 52 31M 47 17C 48.799999 22 48.599998 28 47 33M 42 11C 42 20.4 41 29.799999 42 39"></path></g></g></g><g id="g-root-ic_view_de7dfauldi4s-stroke" data-item-order="0" transform="translate(662, 122)"><g id="ic_view_de7dfauldi4s-stroke" fill="none" stroke-linecap="round" stroke-linejoin="round" stroke-miterlimit="4" stroke="#f4f4f4" stroke-width="2" stroke-opacity="1"><g><path d="M 28.52 45.063999L 16 45.063999C 13.790861 45.063999 12 43.27314 12 41.063999L 12 16.048C 12 13.838861 13.790861 12.048 16 12.048L 46.018002 12.048C 48.227139 12.048 50.018002 13.838861 50.018002 16.048L 50.018002 29.666M 12 19.860001L 50.02 19.860001M 12 36.468002L 28.736 36.468002M 12 28.177999L 34.021999 28.177999M 27.530001 19.860001L 27.530001 45.063999M 38.662003 19.860001L 38.662003 28.177999M 42.155998 51.632C 47.618256 51.518284 51.955372 47.000343 51.846001 41.538002C 51.955372 36.075653 47.618256 31.557716 42.155998 31.444C 36.693745 31.557716 32.356628 36.075653 32.466 41.538002C 32.356628 47.000343 36.693745 51.518284 42.155998 51.632ZM 56 55.953999L 49 48.672001M 28.6 45C 24.6 43.599998 20 43.799999 16 45C 14 45.799999 11.4 43.200001 12 41C 14.4 33.200001 13.8 24.200001 12 16C 11.6 13.8 13.8 12.2 16 12C 26 11 36 12.6 46 12C 48.200001 12 49.200001 14 50 16C 51.599998 20.4 50 25.200001 50 29.6M 12 19.799999C 24.6 21.200001 37.799999 17 50 19.799999M 12 36.400002C 17.6 35.799999 23.200001 36.599998 28.799999 36.400002M 12 28.200001C 19.200001 26.799999 26.6 27.799999 34 28.200001M 27.6 19.799999C 25.4 28 28 36.599998 27.6 45M 38.599998 19.799999C 39.400002 22.6 38.200001 25.4 38.599998 28.200001M 42.200001 51.599998C 47.599998 51 51.599998 47 51.799999 41.599998C 52.400002 36.200001 47.599998 30.4 42.200001 31.4C 36.799999 32.200001 30.200001 36.599998 32.400002 41.599998C 31.4 47 36.799999 51.799999 42.200001 51.599998M 56 56C 53.599998 53.599998 51.599998 51 49 48.599998"></path></g></g></g><g id="g-root-tx_decoding_dj72yeulkiyr-stroke" data-item-order="0" transform="translate(56, 194)"></g><g id="g-root-tx_contexta_4hbf06uldhj6-stroke" data-item-order="0" transform="translate(638, 182)"></g><g id="g-root-tx_reconstr_1qdu3eeulkhzg-stroke" data-item-order="0" transform="translate(38, 230)"></g><g id="g-root-tx_identify_1cw4xbquldhc3-stroke" data-item-order="0" transform="translate(614, 242)"></g><g id="g-root-ic_code_1haph9yulanlw-stroke" data-item-order="0" transform="translate(86, 326)"><g id="ic_code_1haph9yulanlw-stroke" fill="none" stroke-linecap="round" stroke-linejoin="round" stroke-miterlimit="4" stroke="#f4f4f4" stroke-width="2" stroke-opacity="1"><g><path d="M 11 16C 11 18.761425 13.238577 21 16 21C 18.761425 21 21 18.761425 21 16C 21 13.238577 18.761425 11 16 11C 13.238577 11 11 13.238577 11 16M 57 16C 57 18.761425 54.761425 21 52 21L 32 21C 29.238577 21 27 18.761425 27 16C 27 13.238577 29.238577 11 32 11L 52 11C 54.761425 11 57 13.238576 57 16ZM 11 34C 11 36.761425 13.238577 39 16 39C 18.761425 39 21 36.761425 21 34C 21 31.238577 18.761425 29 16 29C 13.238577 29 11 31.238577 11 34M 11 52C 11 54.761425 13.238577 57 16 57C 18.761425 57 21 54.761425 21 52C 21 49.238575 18.761425 47 16 47C 13.238577 47 11 49.238575 11 52M 45 34C 45 36.761425 42.761425 39 40 39L 32 39C 29.238577 39 27 36.761425 27 34C 27 31.238577 29.238577 29 32 29L 40 29C 42.761425 29 45 31.238577 45 34ZM 11 16C 10.6 18.799999 13.4 21.799999 16 21C 18.6 20.200001 20.4 18.6 21 16C 21.6 13.2 18.799999 11.2 16 11C 13.2 10.8 11.4 13.2 11 16M 57 16C 57.599998 18.6 54.799999 20.799999 52 21C 45.400002 21.6 38.599998 20 32 21C 29.200001 21.4 27.799999 18.6 27 16C 26.200001 13.4 29.200001 11 32 11C 38.599998 11 45.799999 13.2 52 11C 54.599998 10 56.599998 13.2 57 16M 11 34C 11 36.799999 13.2 39.599998 16 39C 18.799999 38.400002 21.6 36.799999 21 34C 20.6 31.200001 18.799999 29 16 29C 13.2 29 10.6 31.200001 11 34M 11 52C 11.4 54.799999 13.4 56 16 57C 18.6 58 20.200001 54.599998 21 52C 21.799999 49.400002 18.799999 46.799999 16 47C 13.2 47.200001 11.4 49.200001 11 52M 45 34C 45.799999 36.599998 42.799999 39 40 39C 37.400002 39 34.599998 39.200001 32 39C 29.200001 38.799999 27.4 36.799999 27 34C 26.6 31.200001 29.200001 28.799999 32 29C 34.599998 29.200001 37.400002 28.4 40 29C 42.599998 29.6 45.599998 31.200001 45 34"></path></g></g></g><g id="g-root-ic_data_vccp12ul9b7q-stroke" data-item-order="0" transform="translate(662, 338)"><g id="ic_data_vccp12ul9b7q-stroke" fill="none" stroke-linecap="round" stroke-linejoin="round" stroke-miterlimit="4" stroke="#f4f4f4" stroke-width="2" stroke-opacity="1"><g><path d="M 52.5 11.5C 54.700001 11.5 56.5 13.3 56.5 15.5L 56.5 23.5L 11.5 23.5L 11.5 15.5C 11.5 13.3 13.3 11.5 15.5 11.5L 52.5 11.5ZM 26.5 23.5L 26.5 47.099998L 15.5 47.099998C 13.3 47.099998 11.5 45.299999 11.5 43.099998L 11.5 23.5L 26.5 23.5ZM 11.5 35.5L 26.5 35.5M 31.5 47.099998L 26.5 47.099998M 26.5 35.5L 31.5 35.5M 41.5 23.5L 56.5 23.5L 56.5 27.5M 47.5 38.5C 52.4706 38.5 56.5 37.156799 56.5 35.5C 56.5 33.843201 52.4706 32.5 47.5 32.5C 42.5294 32.5 38.5 33.843201 38.5 35.5C 38.5 37.156799 42.5294 38.5 47.5 38.5ZM 56.5 35.5L 56.5 44.5C 56.5 46.099998 52.5 47.5 47.5 47.5C 42.5 47.5 38.5 46.099998 38.5 44.5L 38.5 35.5M 56.5 44.5L 56.5 53.5C 56.5 55.099998 52.5 56.5 47.5 56.5C 42.5 56.5 38.5 55.099998 38.5 53.5L 38.5 44.5M 41.5 23.5L 41.5 26.9291M 52.599998 11.6C 54.599998 12 56.799999 13.4 56.599998 15.6C 56 18.200001 56.200001 20.799999 56.599998 23.6C 41.799999 26.4 26.4 22.4 11.6 23.6C 12.2 21 11.8 18.200001 11.6 15.6C 11.2 13.4 13.4 10.8 15.6 11.6C 27.200001 15.2 40.200001 10.6 52.599998 11.6M 26.6 23.6C 26.6 31.4 25.6 39.200001 26.6 47.200001C 23 46.200001 19.200001 47.599998 15.6 47.200001C 13.4 46.799999 11.8 45.200001 11.6 43.200001C 10.4 36.599998 13 29.799999 11.6 23.6C 16.4 24.4 21.6 22.6 26.6 23.6M 11.6 35.599998C 16.4 35 21.6 36.200001 26.6 35.599998M 31.6 47.200001C 29.799999 46.799999 28.200001 47.400002 26.6 47.200001M 26.6 35.599998C 28 36 29.799999 35.799999 31.6 35.599998M 41.599998 23.6C 46.400002 24.799999 51.799999 25.4 56.599998 23.6C 56.799999 24.799999 56.799999 26.200001 56.599998 27.6M 47.599998 38.599998C 52.400002 38.400002 56.799999 37.200001 56.599998 35.599998C 56.200001 33.799999 52.200001 33.799999 47.599998 32.599998C 42.799999 31.200001 38.799999 33.799999 38.599998 35.599998C 38.200001 37.200001 42.599998 39.200001 47.599998 38.599998M 56.599998 35.599998C 55.400002 38.200001 55.599998 41.599998 56.599998 44.599998C 57 46 52.400002 48.599998 47.599998 47.599998C 42.599998 46.400002 38.400002 46 38.599998 44.599998C 38.599998 41.599998 37.799999 38.400002 38.599998 35.599998M 56.599998 44.599998C 55.400002 47.200001 56.200001 50.599998 56.599998 53.599998C 56.599998 55 52.400002 55.799999 47.599998 56.599998C 42.599998 57.200001 38.200001 55 38.599998 53.599998C 39.200001 50.599998 39.400002 47.400002 38.599998 44.599998M 41.599998 23.6C 41.799999 24.6 41.799999 25.799999 41.599998 27"></path></g></g></g><g id="g-root-tx_contextb_1d3059yul9ate-stroke" data-item-order="0" transform="translate(56, 386)"></g><g id="g-root-tx_contextm_1hgbr1yulubd0-stroke" data-item-order="0" transform="translate(632, 398)"></g><g id="g-root-tx_encodeda_8vvyyeulansz-stroke" data-item-order="0" transform="translate(38, 470)"></g><g id="g-root-tx_buildamo_18nt48muludc1-stroke" data-item-order="0" transform="translate(614, 458)"></g></g></g><path id="w1hbyimesdfapx" d="M65.283 12.757a.35.35 0 0 0 .584.157l5.203-5.141-6.183 3.523.396 1.461zm-2.216-11.7a.35.35 0 0 0-.522.305v3.111l3.276-1.868-2.754-1.548zm3.728 2.105l-4.25 2.421v2.445l6.391-3.644-2.141-1.222zm4.708 3.303a.35.35 0 0 0 0-.609l-1.592-.9-7.365 4.199v1.782a.35.35 0 0 0 .523.305l8.435-4.777z M44.542 2.513c0-.433.355-.783.792-.783s.792.35.792.783-.355.783-.792.783-.792-.35-.792-.783zm59.171 0c0-.433.355-.783.792-.783s.792.35.792.783-.355.783-.792.783-.792-.35-.792-.783zm-85.951 7.636h-1.27v-.487c-.276.201-.864.609-1.881.609-1.202 0-2.274-.794-2.137-2.078.118-1.106 1.153-1.584 1.848-1.727l2.17-.345c0-.539-.29-.956-1.064-1.006s-1.21.305-1.571 1.017l-1.124-.605c1.218-2.631 5.029-1.764 5.029.414v4.207zm-1.27-2.86c.006.396-.062 1.112-.819 1.59-.587.37-1.841.299-1.903-.395-.049-.555.461-.791.906-.898l1.816-.297zm72.662 2.86h-1.27v-.487c-.276.201-.864.609-1.881.609-1.202 0-2.274-.794-2.137-2.078.118-1.106 1.153-1.584 1.848-1.727l2.17-.345c0-.539-.29-.956-1.064-1.006s-1.21.305-1.571 1.017l-1.124-.605c1.218-2.631 5.029-1.764 5.029.414v4.207zm-1.27-2.86c.006.396-.062 1.112-.82 1.59-.587.37-1.841.299-1.903-.395-.049-.555.461-.791.906-.898l1.816-.297zM99.096 10.149H97.85v-8.45h1.246v4.895l2.68-2.559h1.738l-2.633 2.535 2.715 3.578h-1.556l-2.077-2.707-.867.844v1.863zm6.053-6.114h-1.255v6.113h1.255V4.035zm-59.2 0h-1.255v6.113h1.255V4.035zm5.584 6.113V1.697h1.255v2.695c.361-.346 1-.485 1.47-.485 1.452 0 2.477 1.082 2.457 2.448v3.792h-1.27v-3.68c0-.408-.214-1.339-1.315-1.339-.968 0-1.342.756-1.342 1.339v3.681h-1.255zm-4.76-4.894V4.039h.621a.45.45 0 0 0 .45-.45v-.855h1.251v1.305h1.309v1.215h-1.309v3.109c0 .293.105.664.648.664.365 0 .531-.035.736-.07v1.137s-.361.113-.857.113c-1.398 0-1.777-1.051-1.777-1.788V5.254h-1.071zM36.528 4.039h-1.394l2.191 6.106h1.125l1.234-3.918 1.238 3.918h1.129l2.188-6.106h-1.383l-1.359 3.93-1.256-3.93h-1.124l-1.242 3.957-1.348-3.957zM26.212 7.141c-.02 1.566 1.187 3.129 3.223 3.129 1.566 0 2.383-.918 2.734-1.719L31.172 8c-.315.399-.801 1.094-1.738 1.094-1.145 0-1.825-.781-1.891-1.52h4.625c.074-.284.148-.995-.03-1.559-.336-1.064-1.221-2.102-2.839-2.102s-3.088 1.152-3.088 3.227zm1.363-.75h3.348c-.055-.43-.566-1.301-1.623-1.301a1.79 1.79 0 0 0-1.725 1.301zm-8.758.75c.038 1.758 1.277 3.133 3.145 3.133 1.074 0 1.723-.477 1.961-.672v.547h1.242V1.703h-1.258v2.888c-.414-.36-1.062-.68-1.93-.68-1.91 0-3.198 1.473-3.16 3.23zm1.309-.08c0 1.119.723 1.978 1.836 1.978a1.88 1.88 0 0 0 1.94-1.904c0-1.371-1.011-1.99-1.972-1.99s-1.805.798-1.805 1.916zm76.683-.028C96.771 5.275 95.532 3.9 93.664 3.9c-1.074 0-1.723.477-1.961.672v-.547h-1.242v8.22h1.258V9.583c.414.36 1.063.68 1.93.68 1.91 0 3.198-1.473 3.16-3.23zm-1.309.08c0-1.119-.723-1.978-1.836-1.978a1.88 1.88 0 0 0-1.94 1.904c0 1.371 1.011 1.99 1.972 1.99S95.5 8.231 95.5 7.113zM106.441 10.173V4.036h1.254v.382c.361-.346 1-.485 1.47-.485 1.452 0 2.477 1.082 2.457 2.448v3.792h-1.27V6.492c0-.408-.214-1.339-1.315-1.339-.969 0-1.342.756-1.342 1.339v3.681h-1.254zm-30.383-.021V1.824h1.084l4.215 5.777V1.824h1.32v8.328h-1.094l-4.207-5.796v5.796h-1.319zM5.24 10.149H4V2.377h1.014l2.664 3.597 2.654-3.592h1.03v7.766h-1.256V4.762L7.678 8.068 5.24 4.742v5.407z" transform="translate(20, 566)" fill="#acacac88" stroke="none"></path></svg>